<?xml version="1.0" encoding="UTF-8" standalone="no"?>
<!-- Created with Inkscape (http://www.inkscape.org/) -->

<svg
   xmlns:dc="http://purl.org/dc/elements/1.1/"
   xmlns:cc="http://creativecommons.org/ns#"
   xmlns:rdf="http://www.w3.org/1999/02/22-rdf-syntax-ns#"
   xmlns:svg="http://www.w3.org/2000/svg"
   xmlns="http://www.w3.org/2000/svg"
   xmlns:sodipodi="http://sodipodi.sourceforge.net/DTD/sodipodi-0.dtd"
   xmlns:inkscape="http://www.inkscape.org/namespaces/inkscape"
   width="744.09448819"
   height="1052.3622047"
   id="svg3279"
   version="1.1"
   inkscape:version="0.48.4 r9939"
   sodipodi:docname="New document 4">
  <defs
     id="defs3281" />
  <sodipodi:namedview
     id="base"
     pagecolor="#ffffff"
     bordercolor="#666666"
     borderopacity="1.0"
     inkscape:pageopacity="0.0"
     inkscape:pageshadow="2"
     inkscape:zoom="0.49497475"
     inkscape:cx="-256.36886"
     inkscape:cy="628.92766"
     inkscape:document-units="px"
     inkscape:current-layer="layer1"
     showgrid="false"
     inkscape:window-width="1680"
     inkscape:window-height="964"
     inkscape:window-x="-4"
     inkscape:window-y="-4"
     inkscape:window-maximized="1" />
  <metadata
     id="metadata3284">
    <rdf:RDF>
      <cc:Work
         rdf:about="">
        <dc:format>image/svg+xml</dc:format>
        <dc:type
           rdf:resource="http://purl.org/dc/dcmitype/StillImage" />
        <dc:title></dc:title>
      </cc:Work>
    </rdf:RDF>
  </metadata>
  <g
     inkscape:label="Layer 1"
     inkscape:groupmode="layer"
     id="layer1">
    <g
       id="g3023"
       transform="matrix(1.25,0,0,-1.25,337.27444,431.7168)">
      <path
         inkscape:connector-curvature="0"
         d="m 0,0 c 2.447,5.618 4.957,11.215 7.527,16.792 -21.235,8.612 -43.273,15.713 -65.97,21.156 -0.715,-1.471 -1.425,-2.944 -2.13,-4.418 C -39.232,23.749 -19.004,12.496 0,0"
         style="fill:#f14924;fill-opacity:1;fill-rule:nonzero;stroke:none"
         id="path3025" />
    </g>
    <g
       id="g3027"
       transform="matrix(1.25,0,0,-1.25,330.90118,333.47093)">
      <path
         inkscape:connector-curvature="0"
         d="m 0,0 c -5.136,4.379 -10.378,8.681 -15.726,12.897 -15.173,-16.803 -29.14,-34.292 -41.868,-52.31 1.207,-1.14 2.407,-2.285 3.601,-3.435 C -37.333,-27.584 -19.312,-13.227 0,0"
         style="fill:#f18126;fill-opacity:1;fill-rule:nonzero;stroke:none"
         id="path3029" />
    </g>
    <g
       id="g3031"
       transform="matrix(1.25,0,0,-1.25,340.62094,381.27493)">
      <path
         inkscape:connector-curvature="0"
         d="M 0,0 C -1.549,6.08 -3.164,12.153 -4.842,18.22 -25.077,12.739 -44.63,5.979 -63.406,-1.921 c 0.387,-1.578 0.77,-3.156 1.151,-4.734 C -41.845,-3.057 -21.056,-0.814 0,0"
         style="fill:#f14924;fill-opacity:1;fill-rule:nonzero;stroke:none"
         id="path3033" />
    </g>
    <g
       id="g3035"
       transform="matrix(1.25,0,0,-1.25,331.49319,401.34756)">
      <path
         inkscape:connector-curvature="0"
         d="M 0,0 C 0.099,6.195 0.187,12.39 0.264,18.587 -18.45,17.966 -36.979,16.222 -55.247,13.399 -55.286,11.782 -55.326,10.164 -55.363,8.546 -36.7,6.817 -18.217,3.957 0,0"
         style="fill:#f18126;fill-opacity:1;fill-rule:nonzero;stroke:none"
         id="path3037" />
    </g>
    <g
       id="g3039"
       transform="matrix(1.25,0,0,-1.25,269.72069,308.07418)">
      <path
         inkscape:connector-curvature="0"
         d="m 0,0 c -6.591,-0.097 -13.179,-0.321 -19.761,-0.67 2.49,-20.072 4.821,-40.159 6.993,-60.258 1.555,-0.121 3.109,-0.25 4.662,-0.386 C -5.715,-40.854 -3.014,-20.412 0,0"
         style="fill:#ed6e31;fill-opacity:1;fill-rule:nonzero;stroke:none"
         id="path3041" />
    </g>
    <g
       id="g3043"
       transform="matrix(1.25,0,0,-1.25,298.68743,310.36056)">
      <path
         inkscape:connector-curvature="0"
         d="m 0,0 c -6.818,2.013 -13.697,3.891 -20.63,5.629 -5.484,-21.167 -10.409,-42.423 -14.769,-63.743 1.58,-0.597 3.152,-1.202 4.722,-1.814 9.2,20.287 19.43,40.296 30.677,59.928"
         style="fill:#f18126;fill-opacity:1;fill-rule:nonzero;stroke:none"
         id="path3045" />
    </g>
    <g
       id="g3047"
       transform="matrix(1.25,0,0,-1.25,316.58719,325.74206)">
      <path
         inkscape:connector-curvature="0"
         d="m 0,0 c -5.81,3.656 -11.717,7.211 -17.719,10.662 -12.205,-18.742 -23.337,-37.927 -33.382,-57.443 1.356,-0.971 2.707,-1.947 4.048,-2.928 C -32.699,-32.401 -17,-15.766 0,0"
         style="fill:#ed6e31;fill-opacity:1;fill-rule:nonzero;stroke:none"
         id="path3049" />
    </g>
    <g
       id="g3051"
       transform="matrix(1.25,0,0,-1.25,335.64606,348.69856)">
      <path
         inkscape:connector-curvature="0"
         d="m 0,0 c -3.991,5.186 -8.088,10.323 -12.291,15.409 -17.908,-13.067 -34.648,-27.1 -50.168,-41.912 0.96,-1.338 1.913,-2.677 2.86,-4.02 C -40.832,-19.133 -20.934,-8.889 0,0"
         style="fill:#f14924;fill-opacity:1;fill-rule:nonzero;stroke:none"
         id="path3053" />
    </g>
    <g
       id="g3055"
       transform="matrix(1.25,0,0,-1.25,345.95244,367.33568)">
      <path
         inkscape:connector-curvature="0"
         d="m 0,0 c -2.353,5.901 -4.788,11.788 -7.307,17.655 -21.795,-8.361 -42.557,-18.18 -62.185,-29.247 0.575,-1.525 1.148,-3.053 1.716,-4.58 C -45.933,-9.174 -23.292,-3.728 0,0"
         style="fill:#f18126;fill-opacity:1;fill-rule:nonzero;stroke:none"
         id="path3057" />
    </g>
    <g
       id="g3059"
       transform="matrix(1.25,0,0,-1.25,346.73543,395.31843)">
      <path
         inkscape:connector-curvature="0"
         d="M 0,0 C -0.052,6.204 -0.124,12.41 -0.216,18.617 -22.801,17.87 -45.086,15.498 -66.935,11.592 -66.938,9.97 -66.939,8.348 -66.941,6.726 -44.492,6.108 -22.13,3.859 0,0"
         style="fill:#ed6e31;fill-opacity:1;fill-rule:nonzero;stroke:none"
         id="path3061" />
    </g>
    <g
       id="g3063"
       transform="matrix(1.25,0,0,-1.25,339.17631,420.1818)">
      <path
         inkscape:connector-curvature="0"
         d="m 0,0 c 1.656,5.647 3.348,11.288 5.076,16.918 -21.817,5.663 -44.083,9.756 -66.656,12.209 -0.486,-1.481 -0.968,-2.963 -1.447,-4.446 C -41.182,17.942 -20.131,9.658 0,0"
         style="fill:#f18126;fill-opacity:1;fill-rule:nonzero;stroke:none"
         id="path3065" />
    </g>
    <g
       id="g3067"
       transform="matrix(1.25,0,0,-1.25,327.79569,443.1188)">
      <path
         inkscape:connector-curvature="0"
         d="m 0,0 c 3.214,5.166 6.514,10.295 9.899,15.388 -19.41,11.753 -39.963,22.227 -61.537,31.202 -0.959,-1.339 -1.91,-2.682 -2.854,-4.027 C -34.955,29.524 -16.76,15.25 0,0"
         style="fill:#ed6e31;fill-opacity:1;fill-rule:nonzero;stroke:none"
         id="path3069" />
    </g>
    <g
       id="g3071"
       transform="matrix(1.25,0,0,-1.25,315.72481,443.78343)">
      <path
         inkscape:connector-curvature="0"
         d="M 0,0 C 3.568,4.911 7.232,9.775 10.99,14.59 -5.696,26.279 -23.402,37.022 -42.054,46.647 -43.119,45.386 -44.175,44.124 -45.226,42.854 -28.986,29.36 -13.894,15.016 0,0"
         style="fill:#ed6e31;fill-opacity:1;fill-rule:nonzero;stroke:none"
         id="path3073" />
    </g>
    <g
       id="g3075"
       transform="matrix(1.25,0,0,-1.25,307.07606,457.62318)">
      <path
         inkscape:connector-curvature="0"
         d="M 0,0 C 4.312,4.119 8.731,8.17 13.25,12.148 -1.417,27.9 -17.409,42.907 -34.668,56.959 -35.984,55.94 -37.293,54.917 -38.597,53.887 -24.451,36.51 -11.575,18.492 0,0"
         style="fill:#f14924;fill-opacity:1;fill-rule:nonzero;stroke:none"
         id="path3077" />
    </g>
    <g
       id="g3079"
       transform="matrix(1.25,0,0,-1.25,291.89606,468.87555)">
      <path
         inkscape:connector-curvature="0"
         d="M 0,0 C 4.937,3.086 9.965,6.084 15.086,8.987 3.94,28.086 -8.515,46.749 -22.253,64.808 -23.78,64.114 -25.302,63.415 -26.817,62.706 -16.841,42.088 -7.898,21.153 0,0"
         style="fill:#f18126;fill-opacity:1;fill-rule:nonzero;stroke:none"
         id="path3081" />
    </g>
    <g
       id="g3083"
       transform="matrix(1.25,0,0,-1.25,275.26093,474.11493)">
      <path
         inkscape:connector-curvature="0"
         d="M 0,0 C 5.321,2.094 10.71,4.082 16.167,5.96 8.573,26.827 -0.017,47.491 -9.6,67.862 -11.24,67.484 -12.876,67.096 -14.508,66.7 -9.113,44.547 -4.277,22.306 0,0"
         style="fill:#f14924;fill-opacity:1;fill-rule:nonzero;stroke:none"
         id="path3085" />
    </g>
    <g
       id="g3087"
       transform="matrix(1.25,0,0,-1.25,262.37393,481.0948)">
      <path
         inkscape:connector-curvature="0"
         d="M 0,0 C 5.464,1.333 10.973,2.552 16.521,3.657 11.681,24.73 6.204,45.72 0.095,66.592 -1.562,66.446 -3.22,66.292 -4.876,66.129 -3.124,44.093 -1.496,22.05 0,0"
         style="fill:#ed6e31;fill-opacity:1;fill-rule:nonzero;stroke:none"
         id="path3089" />
    </g>
    <g
       id="g3091"
       transform="matrix(1.25,0,0,-1.25,239.96981,477.43518)">
      <path
         inkscape:connector-curvature="0"
         d="m 0,0 c 5.643,-0.238 11.271,-0.593 16.881,-1.064 0.249,22.521 0.612,45.043 1.091,67.566 -1.637,0.339 -3.279,0.669 -4.921,0.991 C 8.023,45.067 3.673,22.558 0,0"
         style="fill:#ed6e31;fill-opacity:1;fill-rule:nonzero;stroke:none"
         id="path3093" />
    </g>
    <g
       id="g3095"
       transform="matrix(1.25,0,0,-1.25,209.38081,455.38618)">
      <path
         inkscape:connector-curvature="0"
         d="m 0,0 c 5.4,-2.405 10.717,-4.913 15.951,-7.521 6.978,19.41 14.903,38.643 23.767,57.614 -1.372,0.929 -2.753,1.85 -4.139,2.767 C 22.49,35.75 10.624,18.076 0,0"
         style="fill:#f18126;fill-opacity:1;fill-rule:nonzero;stroke:none"
         id="path3097" />
    </g>
    <g
       id="g3099"
       transform="matrix(1.25,0,0,-1.25,220.38419,465.5693)">
      <path
         inkscape:connector-curvature="0"
         d="m 0,0 c 5.597,-1.498 11.136,-3.112 16.614,-4.836 4.272,21.104 9.231,42.14 14.876,63.07 -1.515,0.693 -3.037,1.38 -4.564,2.059 C 16.83,40.495 7.852,20.358 0,0"
         style="fill:#f14924;fill-opacity:1;fill-rule:nonzero;stroke:none"
         id="path3101" />
    </g>
    <g
       id="g3103"
       transform="matrix(1.25,0,0,-1.25,197.85918,448.94093)">
      <path
         inkscape:connector-curvature="0"
         d="M 0,0 C 5.021,-3.262 9.946,-6.611 14.774,-10.046 25.031,8.732 36.557,27.134 49.328,44.995 48.152,46.149 46.968,47.3 45.777,48.446 29.138,33.13 13.862,16.906 0,0"
         style="fill:#ed6e31;fill-opacity:1;fill-rule:nonzero;stroke:none"
         id="path3105" />
    </g>
    <g
       id="g3107"
       transform="matrix(1.25,0,0,-1.25,181.90818,429.96393)">
      <path
         inkscape:connector-curvature="0"
         d="M 0,0 C 4.077,-4.545 8.059,-9.144 11.951,-13.794 26.902,1.56 43.187,16.118 60.747,29.664 59.965,31.098 59.18,32.531 58.388,33.962 37.82,23.949 18.325,12.555 0,0"
         style="fill:#ed6e31;fill-opacity:1;fill-rule:nonzero;stroke:none"
         id="path3109" />
    </g>
    <g
       id="g3111"
       transform="matrix(1.25,0,0,-1.25,169.68956,408.77668)">
      <path
         inkscape:connector-curvature="0"
         d="m 0,0 c 2.895,-5.422 5.728,-10.87 8.5,-16.342 17.402,10.85 35.735,20.65 54.92,29.244 -0.403,1.571 -0.811,3.142 -1.219,4.712 C 40.98,13.175 20.207,7.275 0,0"
         style="fill:#ed6e31;fill-opacity:1;fill-rule:nonzero;stroke:none"
         id="path3113" />
    </g>
    <g
       id="g3115"
       transform="matrix(1.25,0,0,-1.25,177.85056,364.70993)">
      <path
         inkscape:connector-curvature="0"
         d="m 0,0 c -0.624,-6.217 -1.202,-12.433 -1.736,-18.648 21.441,0.555 42.709,-0.389 63.684,-2.762 0.506,1.548 1.014,3.094 1.53,4.64 C 43.049,-9.785 21.849,-4.144 0,0"
         style="fill:#ed6e31;fill-opacity:1;fill-rule:nonzero;stroke:none"
         id="path3117" />
    </g>
    <g
       id="g3119"
       transform="matrix(1.25,0,0,-1.25,168.22356,383.95131)">
      <path
         inkscape:connector-curvature="0"
         d="m 0,0 c 1.016,-6.097 2.032,-12.193 3.044,-18.291 21.716,5.578 43.816,9.571 66.161,11.936 0.139,1.617 0.279,3.233 0.42,4.852 C 46.668,0.724 23.407,1.25 0,0"
         style="fill:#f18126;fill-opacity:1;fill-rule:nonzero;stroke:none"
         id="path3121" />
    </g>
    <g
       id="g3123"
       transform="matrix(1.25,0,0,-1.25,179.80131,355.33556)">
      <path
         inkscape:connector-curvature="0"
         d="m 0,0 c -1.433,-5.899 -2.803,-11.805 -4.112,-17.713 21.49,-1.977 42.547,-5.433 63.049,-10.253 0.675,1.421 1.355,2.841 2.041,4.259 C 41.565,-14.535 21.203,-6.573 0,0"
         style="fill:#f14924;fill-opacity:1;fill-rule:nonzero;stroke:none"
         id="path3125" />
    </g>
    <g
       id="g3127"
       transform="matrix(1.25,0,0,-1.25,186.61893,334.11368)">
      <path
         inkscape:connector-curvature="0"
         d="m 0,0 c -3.313,-5.622 -6.521,-11.275 -9.631,-16.958 21.838,-7.662 42.689,-16.796 62.441,-27.189 1.075,1.254 2.158,2.505 3.248,3.751 C 38.659,-25.89 19.947,-12.353 0,0"
         style="fill:#f18126;fill-opacity:1;fill-rule:nonzero;stroke:none"
         id="path3129" />
    </g>
    <g
       id="g3131"
       transform="matrix(1.25,0,0,-1.25,209.25256,317.48218)">
      <path
         inkscape:connector-curvature="0"
         d="m 0,0 c -5.195,-4.416 -10.28,-8.911 -15.255,-13.481 17.722,-13.362 34.299,-27.655 49.678,-42.706 1.407,0.904 2.821,1.803 4.241,2.693 C 26.861,-35.181 13.965,-17.311 0,0"
         style="fill:#f14924;fill-opacity:1;fill-rule:nonzero;stroke:none"
         id="path3133" />
    </g>
    <g
       id="g3135"
       transform="matrix(1.25,0,0,-1.25,234.12806,304.69343)">
      <path
         inkscape:connector-curvature="0"
         d="m 0,0 c -6.562,-2.701 -13.045,-5.527 -19.447,-8.474 12.336,-18.475 23.698,-37.381 34.072,-56.63 1.624,0.469 3.252,0.928 4.885,1.378 C 13.605,-42.365 7.101,-21.114 0,0"
         style="fill:#ed6e31;fill-opacity:1;fill-rule:nonzero;stroke:none"
         id="path3137" />
    </g>
    <g
       id="g3139"
       transform="matrix(1.25,0,0,-1.25,256.74831,303.28293)">
      <path
         inkscape:connector-curvature="0"
         d="m 0,0 c -7.099,-1.165 -14.161,-2.475 -21.183,-3.928 6.769,-20.765 12.988,-41.658 18.656,-62.648 1.689,0.113 3.38,0.217 5.07,0.31 C 1.726,-44.177 0.878,-22.087 0,0"
         style="fill:#f14924;fill-opacity:1;fill-rule:nonzero;stroke:none"
         id="path3141" />
    </g>
    <g
       id="g3143"
       transform="matrix(1.25,0,0,-1.25,215.80531,405.1048)">
      <path
         inkscape:connector-curvature="0"
         d="M 0,0 C 0.153,0.488 3.284,39.493 33.146,40.314 63.009,41.135 68.276,2.36 68.456,1.88 70.285,-2.981 73.926,-6.316 74.058,-11.095 74.458,-25.652 57.11,-37.94 35.314,-38.539 13.515,-39.139 -4.48,-27.823 -4.88,-13.264 -5.011,-8.487 -1.558,-4.958 0,0"
         style="fill:#fbb850;fill-opacity:1;fill-rule:nonzero;stroke:none"
         id="path3145" />
    </g>
    <g
       id="g3147"
       transform="matrix(1.25,0,0,-1.25,242.10356,423.4868)">
      <path
         inkscape:connector-curvature="0"
         d="m 0,0 c 0.106,-3.862 11.497,-6.681 13.802,-6.618 2.303,0.064 13.522,3.504 13.416,7.367 C 27.112,4.611 -0.106,3.862 0,0"
         style="fill:#42210b;fill-opacity:1;fill-rule:nonzero;stroke:none"
         id="path3149" />
    </g>
    <g
       id="g3151"
       transform="matrix(1.25,0,0,-1.25,273.79843,384.85706)">
      <path
         inkscape:connector-curvature="0"
         d="m 0,0 c 3.34,0.091 6.178,-4.625 6.34,-10.535 0.021,-0.739 -0.002,-1.46 -0.063,-2.159 -0.001,0.033 -0.001,0.067 -0.001,0.099 -0.132,4.775 -2.891,8.573 -6.162,8.484 -3.274,-0.09 -5.821,-4.035 -5.689,-8.809 0.001,-0.033 0.004,-0.066 0.005,-0.101 -0.099,0.696 -0.162,1.415 -0.181,2.153 C -5.914,-4.958 -3.338,-0.091 0,0"
         style="fill:#ffffff;fill-opacity:1;fill-rule:nonzero;stroke:none"
         id="path3153" />
    </g>
    <g
       id="g3155"
       transform="matrix(1.25,0,0,-1.25,273.94068,389.99618)">
      <path
         inkscape:connector-curvature="0"
         d="m 0,0 c 3.271,0.089 6.03,-3.709 6.162,-8.483 0.001,-0.033 0,-0.066 0.001,-0.1 -0.429,-4.893 -2.767,-8.628 -5.688,-8.709 -2.923,-0.081 -5.462,3.522 -6.159,8.383 -10e-4,0.034 -0.004,0.068 -0.004,0.1 C -5.82,-4.034 -3.274,-0.09 0,0"
         style="fill:#000000;fill-opacity:1;fill-rule:nonzero;stroke:none"
         id="path3157" />
    </g>
    <g
       id="g3159"
       transform="matrix(1.25,0,0,-1.25,242.49906,390.85981)">
      <path
         inkscape:connector-curvature="0"
         d="m 0,0 c -3.271,-0.089 -5.818,-4.033 -5.687,-8.81 0,-0.033 0.004,-0.066 0.004,-0.099 -0.099,0.694 -0.161,1.413 -0.181,2.152 -0.163,5.91 2.411,10.777 5.752,10.869 3.338,0.091 6.176,-4.627 6.34,-10.537 0.02,-0.739 -0.002,-1.459 -0.064,-2.158 0,0.033 0.001,0.066 0,0.099 C 6.033,-3.709 3.273,0.089 0,0"
         style="fill:#ffffff;fill-opacity:1;fill-rule:nonzero;stroke:none"
         id="path3161" />
    </g>
    <g
       id="g3163"
       transform="matrix(1.25,0,0,-1.25,235.39581,401.99631)">
      <path
         inkscape:connector-curvature="0"
         d="m 0,0 c 0,0.033 -0.004,0.066 -0.005,0.1 -0.131,4.776 2.417,8.72 5.688,8.809 3.273,0.09 6.033,-3.709 6.164,-8.484 0,-0.033 0,-0.066 0,-0.099 C 11.417,-4.566 9.081,-8.302 6.158,-8.384 3.235,-8.464 0.697,-4.861 0,0"
         style="fill:#000000;fill-opacity:1;fill-rule:nonzero;stroke:none"
         id="path3165" />
    </g>
    <g
       id="g3167"
       transform="matrix(1.25,0,0,-1.25,258.78568,431.47818)">
      <path
         inkscape:connector-curvature="0"
         d="m 0,0 c 0.35,-0.051 0.655,-0.082 0.898,-0.092 0.004,-1.463 0.026,-2.989 0.07,-4.559 0.134,-4.916 0.443,-9.394 0.84,-12.774 -0.062,-0.003 -0.122,-0.006 -0.18,-0.008 -0.528,-0.014 -1.053,-0.019 -1.576,-0.02 0.209,3.395 0.269,7.872 0.135,12.78 C 0.143,-3.061 0.08,-1.496 0,0"
         style="fill:#42210b;fill-opacity:1;fill-rule:nonzero;stroke:none"
         id="path3169" />
    </g>
    <g
       id="g3171"
       transform="matrix(1.25,0,0,-1.25,224.58706,367.37593)">
      <path
         inkscape:connector-curvature="0"
         d="m 0,0 c 2.825,-0.693 6.84,0.988 8.923,3.736 l 0.681,0.897 c 2.082,2.749 2.616,7.07 1.182,9.602 l -4.69,8.298 c -1.433,2.531 -4.931,4.062 -9.031,1.605 -3.661,-2.194 -9.188,-9.487 -10.309,-13.604 -1.258,-4.614 1.161,-7.566 3.986,-8.26 L 0,0 z"
         style="fill:#fbb850;fill-opacity:1;fill-rule:nonzero;stroke:none"
         id="path3173" />
    </g>
    <g
       id="g3175"
       transform="matrix(1.25,0,0,-1.25,225.15281,364.65381)">
      <path
         inkscape:connector-curvature="0"
         d="m 0,0 c 2.17,-0.523 5.268,0.792 6.88,2.923 l 0.529,0.694 c 1.614,2.13 2.043,5.467 0.952,7.416 l -3.575,6.385 c -1.092,1.949 -3.776,3.115 -6.941,1.2 -2.826,-1.709 -7.11,-7.362 -7.993,-10.545 -0.986,-3.565 0.862,-5.834 3.033,-6.359 L 0,0 z"
         style="fill:#fdd18c;fill-opacity:1;fill-rule:nonzero;stroke:none"
         id="path3177" />
    </g>
    <g
       id="g3179"
       transform="matrix(1.25,0,0,-1.25,290.82856,365.73168)">
      <path
         inkscape:connector-curvature="0"
         d="m 0,0 c -2.783,-0.849 -6.885,0.61 -9.115,3.239 l -0.73,0.859 c -2.23,2.63 -2.998,6.915 -1.708,9.522 l 4.227,8.543 c 1.293,2.607 4.701,4.326 8.929,2.098 C 5.378,22.272 11.299,15.293 12.644,11.244 14.154,6.708 11.901,3.626 9.117,2.779 L 0,0 z"
         style="fill:#fbb850;fill-opacity:1;fill-rule:nonzero;stroke:none"
         id="path3181" />
    </g>
    <g
       id="g3183"
       transform="matrix(1.25,0,0,-1.25,290.11443,363.04493)">
      <path
         inkscape:connector-curvature="0"
         d="m 0,0 c -2.139,-0.643 -5.303,0.5 -7.033,2.539 l -0.564,0.665 c -1.729,2.038 -2.341,5.347 -1.359,7.353 l 3.221,6.57 c 0.982,2.006 3.598,3.318 6.862,1.581 C 4.044,17.156 8.632,11.746 9.687,8.617 10.868,5.113 9.147,2.745 7.009,2.103 L 0,0 z"
         style="fill:#fdd18c;fill-opacity:1;fill-rule:nonzero;stroke:none"
         id="path3185" />
    </g>
  </g>
</svg>
